<svg aria-hidden="true" style="position: absolute; width: 0; height: 0; overflow: hidden;" version="1.1" xmlns="http://www.w3.org/2000/svg" xmlns:xlink="http://www.w3.org/1999/xlink">
<defs>
<symbol id="needle" viewBox="0 0 32 32">
<path fill="#fff" style="fill: var(--color1, #fff)" d="M3.551 1.152c-0.029-0-0.059 0.001-0.088 0.002-0.039 0.001-0.078 0.004-0.117 0.008-0.467 0.045-0.918 0.259-1.394 0.695-0.624 0.571-0.804 1.104-0.713 1.732s0.522 1.39 1.32 2.182c0.181 0.179 0.383 0.359 0.6 0.539 0.079 0.066 0.16 0.133 0.244 0.199 0.070 0.055 0.142 0.111 0.215 0.166 0.014 0.011 0.028 0.022 0.043 0.033 1.009 0.752 2.312 1.496 3.855 2.18 9.983 10.082 18.051 18.597 23.412 22.008-3.194-5.352-11.714-13.414-21.875-23.471-0.639-1.488-1.32-2.732-2.006-3.705 2.216-0.637 5.157-0.143 7.859 2.559 2.515 2.515 3.29 5.673 2.586 8.021 0.306 0.307 0.618 0.62 0.918 0.922 1.192-2.881 0.286-6.806-2.678-9.77-2.231-2.231-4.718-3.145-6.939-3.139-0.072 0-0.144 0.002-0.215 0.004-1.365 0.041-2.622 0.431-3.646 1.074-0.18 0.113-0.354 0.235-0.519 0.363 0.083 0.193 0.172 0.368 0.275 0.514 0.12 0.17 0.25 0.308 0.432 0.418 0.138-0.107 0.281-0.211 0.434-0.307 0.066-0.042 0.134-0.084 0.203-0.123 0.512 0.63 0.967 1.539 1.592 2.953-1.494-0.66-2.426-1.127-3.065-1.688 0.002-0.002 0.003-0.004 0.004-0.006-0.027-0.021-0.054-0.041-0.080-0.063-0.001-0-0.001-0.001-0.002-0.002-0.701-0.648-1.033-1.433-1.394-2.781 0.374 0.1 0.704 0.199 1 0.303 0.533-0.404 1.094-0.732 1.676-0.992-0.594-0.484-1.159-0.746-1.668-0.811-0.090-0.012-0.179-0.019-0.268-0.020zM30.83 4.023c-4.874 0-7.849 1.805-9.133 4.338s-0.875 5.649 0.605 8.213c0.712 1.233 1.113 2.543 1.199 3.826 0.392 0.405 0.777 0.804 1.154 1.199 0.144-1.872-0.317-3.834-1.342-5.609-1.321-2.288-1.635-5.007-0.574-7.1s3.496-3.699 8.090-3.699v-1.168zM2.369 7.184c-0.181 1.495 0.386 3.138 1.846 4.598l0.826-0.824c-0.998-0.998-1.449-1.99-1.527-2.912-0.415-0.282-0.797-0.569-1.145-0.861zM7.754 17.313c-1.529-0.002-2.815 0.308-3.834 0.854-1.553 0.832-2.46 2.242-2.547 3.779-0.174 3.075 2.774 6.416 8.775 7.392 6.352 1.034 10.644-0.574 12.838-3.379 0.063-0.081 0.124-0.162 0.184-0.244-0.285-0.265-0.572-0.532-0.861-0.805-0.077 0.112-0.157 0.222-0.242 0.33-1.873 2.395-5.647 3.936-11.73 2.945-5.65-0.92-7.925-3.908-7.797-6.174 0.064-1.133 0.686-2.148 1.934-2.816s3.142-0.96 5.656-0.467c2.13 0.418 3.934 0.217 5.34-0.433-0.295-0.291-0.593-0.583-0.893-0.879-1.097 0.403-2.493 0.506-4.223 0.166-0.931-0.183-1.799-0.269-2.6-0.27z"></path>
</symbol>
<symbol id="scissors" viewBox="0 0 32 32">
<path fill="#fff" style="fill: var(--color1, #fff)" d="M20.734 12.454l-0.699-0.699 11.3-11.3c-5.859 0.508-12.257 7.119-16.081 10.943l-1.15 4.195-3.845 0.995c-0.239-0.815-0.682-1.587-1.321-2.225-0.508-0.508-1.102-0.894-1.733-1.15-0.949-0.384-1.979-0.479-2.969-0.288-0.989 0.19-1.941 0.675-2.703 1.437-0.509 0.509-0.895 1.102-1.151 1.734-0.383 0.947-0.479 1.979-0.287 2.968 0.19 0.988 0.674 1.94 1.438 2.704 0.508 0.509 1.101 0.894 1.732 1.15 0.948 0.384 1.979 0.48 2.969 0.288s1.94-0.674 2.704-1.438c0.508-0.509 0.895-1.102 1.15-1.733 0.152-0.375 0.257-0.763 0.318-1.155l2.943-0.683-0.683 2.945c-0.061 0.010-0.123 0.017-0.185 0.029-0.988 0.19-1.941 0.674-2.703 1.437-0.509 0.509-0.895 1.102-1.151 1.734-0.383 0.947-0.48 1.979-0.287 2.968 0.19 0.988 0.674 1.94 1.438 2.704 0.508 0.509 1.101 0.894 1.732 1.15 0.948 0.384 1.979 0.48 2.968 0.288 0.99-0.19 1.941-0.674 2.705-1.437 0.508-0.509 0.895-1.101 1.15-1.732 0.383-0.948 0.479-1.98 0.288-2.97-0.191-0.988-0.674-1.94-1.438-2.704-0.508-0.508-1.102-0.894-1.733-1.15-0.152-0.061-0.306-0.113-0.463-0.16l1.294-3.9 3.866-1.107c3.809-3.809 11.228-9.334 11.851-15.103l-11.266 11.266zM7.629 18.532c-0.090 0.461-0.309 0.897-0.669 1.257-0.241 0.24-0.514 0.416-0.806 0.537-0.438 0.177-0.923 0.223-1.385 0.133-0.461-0.090-0.895-0.31-1.257-0.669-0.24-0.241-0.417-0.514-0.536-0.805-0.178-0.439-0.223-0.924-0.133-1.386 0.090-0.461 0.31-0.895 0.67-1.257 0.241-0.241 0.513-0.416 0.805-0.535 0.438-0.178 0.925-0.223 1.385-0.134 0.462 0.090 0.896 0.31 1.257 0.669 0.24 0.242 0.416 0.514 0.535 0.806 0.179 0.438 0.224 0.923 0.134 1.385zM15.206 24.586c0.24 0.242 0.416 0.514 0.535 0.806 0.179 0.438 0.224 0.923 0.134 1.385-0.090 0.461-0.31 0.896-0.669 1.256-0.241 0.24-0.514 0.417-0.806 0.537-0.438 0.177-0.923 0.223-1.385 0.134-0.462-0.091-0.896-0.31-1.258-0.67-0.24-0.241-0.416-0.514-0.535-0.805-0.178-0.439-0.224-0.924-0.134-1.386 0.090-0.461 0.309-0.896 0.669-1.257 0.241-0.241 0.512-0.416 0.805-0.535 0.439-0.178 0.924-0.225 1.386-0.134 0.462 0.090 0.896 0.309 1.257 0.669zM18.561 14.361c-0.366 0.367-0.959 0.365-1.325 0s-0.366-0.958 0-1.325c0.366-0.365 0.959-0.366 1.324 0s0.366 0.959 0.001 1.325z"></path>
</symbol>
<symbol id="sewingmachine" viewBox="0 0 32 32">
<path fill="#fff" style="fill: var(--color1, #fff)" d="M17.92 1.92v0.64h-1.28v5.12h-7.040v-1.28h-1.28v1.28h-1.92c-1.74 0-3.2 1.39-3.2 3.2 0 0.832 0.16 2.4 0.32 3.82s0.32 2.66 0.32 2.66l0.080 0.56h2.48v1.28h-0.64v1.28h2.56v-1.28h-0.64v-1.28h2.42l0.52-2.080c0.072-0.287 0.325-0.48 0.62-0.48h3.38c0.62 0 1.158 0.425 1.26 1.020 0.060 0.348 0.12 1.282 0.12 1.9s-0.057 1.457-0.12 1.82c-0.102 0.595-0.64 1.020-1.26 1.020h-9.5c-1.76 0-3.2 1.44-3.2 3.2v3.2c0 1.052 0.868 1.92 1.92 1.92h1.28v0.64h3.2v-0.64h12.8v0.64h3.2v-0.64h1.28c1.052 0 1.92-0.867 1.92-1.92v-12.16h2.56v-5.76h-2.84c-0.497-1.125-1.617-1.92-2.92-1.92h-1.28v-2.56h-1.28v2.56h-1.28v-5.12h-1.28v-0.64zM17.92 3.84h1.28v3.84h-1.28zM6.4 8.96h0.64v5.76h1.28v-5.76h16c1.067 0 1.92 0.852 1.92 1.92v16.64c0 0.363-0.277 0.64-0.64 0.64h-21.76c-0.362 0-0.64-0.277-0.64-0.64v-3.2c0-1.067 0.853-1.92 1.92-1.92h9.5c1.223 0 2.307-0.86 2.52-2.080 0.093-0.525 0.14-1.35 0.14-2.040s-0.045-1.58-0.14-2.12c-0.212-1.22-1.297-2.080-2.52-2.080h-3.38c-0.877 0-1.648 0.61-1.86 1.46l-0.28 1.1h-4.040c-0.048-0.372-0.135-0.97-0.26-2.080-0.16-1.41-0.32-3.033-0.32-3.68 0-1.15 0.833-1.92 1.92-1.92zM21.76 10.88c-1.052 0-1.92 0.867-1.92 1.92s0.867 1.92 1.92 1.92c1.052 0 1.92-0.867 1.92-1.92s-0.867-1.92-1.92-1.92zM27.52 10.88h1.28v3.2h-1.28zM21.76 12.16c0.36 0 0.64 0.28 0.64 0.64s-0.28 0.64-0.64 0.64c-0.36 0-0.64-0.28-0.64-0.64s0.28-0.64 0.64-0.64zM21.76 17.28c-1.76 0-3.2 1.44-3.2 3.2s1.44 3.2 3.2 3.2c1.76 0 3.2-1.44 3.2-3.2s-1.44-3.2-3.2-3.2zM21.76 18.56c1.067 0 1.92 0.852 1.92 1.92s-0.852 1.92-1.92 1.92c-1.067 0-1.92-0.852-1.92-1.92s0.852-1.92 1.92-1.92z"></path>
</symbol>
</defs>
</svg>
